<?xml version="1.0" standalone="no"?>
<!DOCTYPE svg PUBLIC "-//W3C//DTD SVG 20010904//EN"
 "http://www.w3.org/TR/2001/REC-SVG-20010904/DTD/svg10.dtd">
<svg version="1.0" xmlns="http://www.w3.org/2000/svg"
 width="700.000000pt" height="350.000000pt" viewBox="0 0 700.000000 350.000000"
 preserveAspectRatio="xMidYMid meet">

<g transform="translate(0.000000,350.000000) scale(0.100000,-0.100000)"
fill="#000000" stroke="none">
<path d="M2625 3179 c-228 -117 -410 -292 -530 -511 l-36 -67 30 -94 c45 -142
64 -263 64 -427 1 -157 -10 -245 -50 -385 -65 -234 -181 -437 -343 -603 -34
-35 -53 -59 -43 -54 10 6 57 50 106 99 266 268 399 575 414 958 7 171 -6 304
-43 455 l-24 101 39 67 c106 181 273 354 440 457 33 21 61 39 61 41 0 6 0 6
-85 -37z"/>
<path d="M2697 2655 c-76 -28 -176 -88 -228 -136 l-54 -49 47 30 c51 33 130
64 194 74 l39 7 344 -287 343 -286 146 36 c220 55 459 128 727 223 608 216
670 228 1340 263 212 11 441 40 515 65 25 8 32 11 15 7 -16 -4 -286 -7 -600
-7 -498 0 -584 -2 -680 -18 -157 -25 -369 -79 -600 -152 -350 -111 -533 -159
-768 -200 l-138 -24 -294 234 c-161 129 -297 235 -302 234 -4 0 -25 -7 -46
-14z"/>
<path d="M5343 2349 c-418 -32 -778 -190 -1203 -528 -102 -82 -220 -189 -220
-200 0 -4 43 -15 96 -25 425 -79 933 -231 1458 -435 l29 -12 -39 -40 c-45 -47
-107 -86 -167 -104 l-42 -14 51 0 c64 -1 123 19 184 63 76 55 129 78 192 84
33 2 55 8 51 13 -4 4 -156 58 -338 119 -593 201 -1167 395 -1193 405 -9 3 8
29 51 78 226 252 568 453 922 541 99 25 266 46 371 47 86 2 93 3 49 9 -61 10
-118 10 -252 -1z"/>
<path d="M2340 2288 c0 -2 -7 -57 -15 -123 -8 -65 -15 -129 -15 -140 0 -14
177 -198 561 -581 l560 -559 47 1 c211 6 620 224 877 468 l70 67 -90 -71
c-292 -230 -574 -372 -818 -411 l-79 -12 -94 94 c-348 344 -725 820 -958 1207
-32 53 -46 71 -46 60z"/>
<path d="M1605 2073 c-166 -21 -474 -110 -564 -163 -26 -15 -8 -12 157 30 209
52 317 70 421 70 139 0 268 -40 372 -115 27 -19 51 -35 53 -35 3 0 12 23 21
51 16 48 16 51 -1 70 -26 29 -131 77 -193 89 -51 10 -202 11 -266 3z"/>
<path d="M5234 1930 c-128 -19 -269 -82 -381 -172 -64 -51 -143 -137 -143
-157 0 -6 20 -21 44 -33 l44 -21 68 62 c76 70 208 140 314 168 79 21 252 23
330 4 30 -7 96 -33 147 -57 193 -92 325 -279 352 -501 27 -219 -48 -418 -219
-576 -77 -71 -195 -135 -290 -158 -78 -19 -241 -17 -320 4 -238 63 -422 254
-476 493 -18 81 -16 242 4 294 32 85 28 84 -95 -15 -114 -92 -118 -97 -125
-143 -10 -62 7 -202 33 -288 83 -272 322 -492 598 -549 69 -15 126 -6 144 22
12 19 94 17 105 -3 5 -9 28 -17 63 -20 103 -10 315 85 444 198 74 65 161 180
205 271 56 117 80 226 80 370 0 243 -81 432 -257 598 -181 170 -421 245 -669
209z"/>
<path d="M1555 1804 c-11 -2 -45 -9 -75 -15 -75 -15 -202 -76 -278 -134 -207
-156 -313 -432 -268 -695 54 -310 282 -552 596 -631 112 -28 316 -23 425 11
281 89 495 310 577 596 32 112 32 324 1 436 -30 102 -64 176 -117 256 -49 73
-133 165 -144 158 -4 -2 -18 -24 -30 -48 l-24 -43 45 -66 c51 -77 100 -190
123 -286 23 -92 23 -259 1 -343 -82 -312 -382 -510 -709 -469 -162 20 -288 80
-398 189 -107 107 -160 230 -160 376 0 249 170 431 420 451 l77 6 108 114 c59
63 106 116 103 118 -16 16 -215 30 -273 19z"/>
<path d="M5305 270 c-3 -5 -1 -10 4 -10 6 0 11 5 11 10 0 6 -2 10 -4 10 -3 0
-8 -4 -11 -10z"/>
</g>
</svg>
